<svg width="62" height="20" viewBox="0 0 62 20" fill="none" xmlns="http://www.w3.org/2000/svg">
<mask id="path-1-inside-1" fill="white">
<path fill-rule="evenodd" clip-rule="evenodd" d="M2 0C0.895431 0 0 0.895431 0 2V18C0 19.1046 0.895432 20 2 20H56C57.1046 20 58 19.1046 58 18V2C58 0.895431 57.1046 0 56 0H2ZM60 15H59V7H60C61.1046 7 62 7.89543 62 9V13C62 14.1046 61.1046 15 60 15Z"/>
</mask>
<path d="M59 15H57V17H59V15ZM59 7V5H57V7H59ZM2 2V2V-2C-0.20914 -2 -2 -0.209138 -2 2H2ZM2 18V2H-2V18H2ZM2 18H2H-2C-2 20.2091 -0.209136 22 2 22V18ZM56 18H2V22H56V18ZM56 18V22C58.2091 22 60 20.2091 60 18H56ZM56 2V18H60V2H56ZM56 2H60C60 -0.20914 58.2091 -2 56 -2V2ZM2 2H56V-2H2V2ZM59 17H60V13H59V17ZM57 7V15H61V7H57ZM60 5H59V9H60V5ZM64 9C64 6.79086 62.2091 5 60 5V9H64ZM64 13V9H60V13H64ZM60 17C62.2091 17 64 15.2091 64 13H60V17Z" fill="black" mask="url(#path-1-inside-1)"/>
<rect x="2" y="2" width="54" height="16" fill="#25CB55"/>
<mask id="path-4-inside-2" fill="white">
<path fill-rule="evenodd" clip-rule="evenodd" d="M2 0C0.895431 0 0 0.895431 0 2V18C0 19.1046 0.895432 20 2 20H56C57.1046 20 58 19.1046 58 18V2C58 0.895431 57.1046 0 56 0H2ZM60 15H59V7H60C61.1046 7 62 7.89543 62 9V13C62 14.1046 61.1046 15 60 15Z"/>
</mask>
<path d="M59 15H57V17H59V15ZM59 7V5H57V7H59ZM2 2V2V-2C-0.20914 -2 -2 -0.209138 -2 2H2ZM2 18V2H-2V18H2ZM2 18H2H-2C-2 20.2091 -0.209136 22 2 22V18ZM56 18H2V22H56V18ZM56 18V22C58.2091 22 60 20.2091 60 18H56ZM56 2V18H60V2H56ZM56 2H60C60 -0.20914 58.2091 -2 56 -2V2ZM2 2H56V-2H2V2ZM59 17H60V13H59V17ZM57 7V15H61V7H57ZM60 5H59V9H60V5ZM64 9C64 6.79086 62.2091 5 60 5V9H64ZM64 13V9H60V13H64ZM60 17C62.2091 17 64 15.2091 64 13H60V17Z" fill="black" mask="url(#path-4-inside-2)"/>
<rect x="2" y="2" width="54" height="16" fill="#25CB55"/>
</svg>
