<svg width="50" height="20" viewBox="0 0 50 20" fill="none" xmlns="http://www.w3.org/2000/svg">
<path fill-rule="evenodd" clip-rule="evenodd" d="M46.7741 2V5V7V15V17V18C46.7741 19.1046 45.8787 20 44.7741 20H2C0.895429 20 0 19.1046 0 18V2C0 0.895431 0.895431 0 2 0H44.7741C45.8787 0 46.7741 0.895431 46.7741 2ZM49.9994 13C49.9994 13.4618 49.8429 13.887 49.58 14.2255C49.3705 14.4954 49.0934 14.7101 48.7741 14.8444C48.5359 14.9446 48.2741 15 47.9994 15H47.58V13V9V7H47.9994C48.2741 7 48.5359 7.05538 48.7741 7.15559C49.0934 7.28987 49.3705 7.50463 49.58 7.77447C49.8429 8.113 49.9994 8.53822 49.9994 9V13ZM2 18V2L44.7741 2V18H2ZM34 4H4V16H34V4Z" fill="black" fill-opacity="0.4"/>
</svg>
