<svg width="32" height="32" viewBox="0 0 32 32" fill="none" xmlns="http://www.w3.org/2000/svg">
<path fill-rule="evenodd" clip-rule="evenodd" d="M16.2222 6.75925C12.8625 6.75925 10.1389 9.48285 10.1389 12.8426V19.6018C10.1389 22.9616 12.8625 25.6852 16.2222 25.6852C19.582 25.6852 22.3056 22.9616 22.3056 19.6018V12.8426C22.3056 9.48285 19.582 6.75925 16.2222 6.75925ZM15.9725 9.68254C15.5308 9.32364 14.8704 9.63799 14.8704 10.2071V14.8704L12.9826 12.9826C12.7186 12.7186 12.2906 12.7186 12.0267 12.9826L11.9687 13.0406C11.7047 13.3045 11.7047 13.7325 11.9687 13.9965L14.1944 16.2222L11.9687 18.448C11.7047 18.7119 11.7047 19.1399 11.9687 19.4039L12.0267 19.4619C12.2906 19.7258 12.7186 19.7258 12.9826 19.4619L14.8704 17.5741V21.6965C14.8704 22.2408 15.4807 22.5618 15.9292 22.2535L19.5712 19.7497C19.9314 19.502 19.9654 18.9827 19.6404 18.6903L16.8981 16.2222L19.6904 13.7092C19.9989 13.4315 19.9866 12.944 19.6644 12.6822L15.9725 9.68254ZM16.8981 12.1667V14.5324L18.25 13.1806L16.8981 12.1667ZM16.8981 20.2778V17.912L18.25 19.2639L16.8981 20.2778Z" fill="black"/>
</svg>
