<svg width="32" height="32" viewBox="0 0 32 32" fill="none" xmlns="http://www.w3.org/2000/svg">
<path fill-rule="evenodd" clip-rule="evenodd" d="M5.52326 6.875H7.21307V10.9306H7.889V12.2824H7.21307V14.3102H5.86122V12.2824H1.80566V10.9306L5.52326 6.875ZM5.86122 10.9306V8.90278L3.83344 10.9306H5.86122ZM26.815 10.9306C26.815 10.5573 27.1176 10.2546 27.4909 10.2546H28.8427C29.216 10.2546 29.5187 10.5573 29.5187 10.9306V24.4491C29.5187 24.8224 29.216 25.125 28.8427 25.125H27.4909C27.1176 25.125 26.815 24.8224 26.815 24.4491V10.9306ZM22.7594 12.9583C22.7594 12.585 23.062 12.2824 23.4353 12.2824H24.7872C25.1605 12.2824 25.4631 12.585 25.4631 12.9583V24.4491C25.4631 24.8224 25.1605 25.125 24.7872 25.125H23.4353C23.062 25.125 22.7594 24.8224 22.7594 24.4491V12.9583ZM19.3798 14.3102C19.0065 14.3102 18.7038 14.6128 18.7038 14.9861V24.4491C18.7038 24.8224 19.0065 25.125 19.3798 25.125H20.7316C21.1049 25.125 21.4076 24.8224 21.4076 24.4491V14.9861C21.4076 14.6128 21.1049 14.3102 20.7316 14.3102H19.3798ZM14.6483 17.0139C14.6483 16.6406 14.9509 16.338 15.3242 16.338H16.6761C17.0494 16.338 17.352 16.6406 17.352 17.0139V24.4491C17.352 24.8224 17.0494 25.125 16.6761 25.125H15.3242C14.9509 25.125 14.6483 24.8224 14.6483 24.4491V17.0139ZM11.2686 18.3658C10.8953 18.3658 10.5927 18.6684 10.5927 19.0417V24.4491C10.5927 24.8224 10.8953 25.125 11.2686 25.125H12.6205C12.9938 25.125 13.2964 24.8224 13.2964 24.4491V19.0417C13.2964 18.6684 12.9938 18.3658 12.6205 18.3658H11.2686ZM14.9862 8.90278L15.6621 7.88889C15.6621 7.88889 14.6483 6.875 12.9584 6.875C10.5927 6.875 9.24085 8.56481 9.24085 10.5926C9.24085 12.6204 10.5927 14.3102 12.9584 14.3102C14.9862 14.3102 16.0001 12.9583 16.0001 12.9583V10.2546H13.2964V11.6065H14.6483V12.2824C14.6483 12.2824 14.3103 12.9583 12.9584 12.9583C11.6066 12.9583 10.5927 11.9444 10.5927 10.5926C10.5927 9.24074 11.6066 8.22685 12.9584 8.22685C14.2564 8.22685 14.9862 8.90278 14.9862 8.90278Z" fill="black"/>
</svg>
