<svg width="48" height="48" viewBox="0 0 48 48" fill="none" xmlns="http://www.w3.org/2000/svg">
<path fill-rule="evenodd" clip-rule="evenodd" d="M24.7506 42.077C27.6557 38.458 38 25.1169 38 18.641C38 11.1073 31.732 5 24 5C16.268 5 10 11.1073 10 18.641C10 25.1169 20.3443 38.458 23.2494 42.077C23.6407 42.5645 24.3593 42.5645 24.7506 42.077ZM24 25C27.3137 25 30 22.3137 30 19C30 15.6863 27.3137 13 24 13C20.6863 13 18 15.6863 18 19C18 22.3137 20.6863 25 24 25Z" fill="black" fill-opacity="0.4"/>
</svg>
