<svg width="40" height="40" viewBox="0 0 40 40" fill="none" xmlns="http://www.w3.org/2000/svg">
<path fill-rule="evenodd" clip-rule="evenodd" d="M17 3C17 1.34315 18.3431 0 20 0C21.6569 0 23 1.34315 23 3V5.30005C24.9151 5.6888 26.6978 6.44242 28.2722 7.4852L29.8995 5.8579C31.0711 4.68633 32.9706 4.68633 34.1421 5.8579C35.3137 7.02948 35.3137 8.92897 34.1421 10.1005L32.5148 11.7278C33.5576 13.3023 34.3112 15.0849 34.7 17H37C38.6569 17 40 18.3431 40 20C40 21.6569 38.6569 23 37 23H34.7C34.3112 24.9152 33.5576 26.6979 32.5147 28.2723L34.1421 29.8997C35.3137 31.0712 35.3137 32.9707 34.1421 34.1423C32.9705 35.3139 31.071 35.3139 29.8995 34.1423L28.2721 32.5149C26.6977 33.5576 24.9151 34.3112 23 34.6999V37C23 38.6569 21.6569 40 20 40C18.3431 40 17 38.6569 17 37V34.6999C15.0849 34.3112 13.3024 33.5576 11.728 32.5149L10.1005 34.1424C8.92894 35.3139 7.02944 35.3139 5.85787 34.1424C4.68629 32.9708 4.68629 31.0713 5.85787 29.8997L7.48529 28.2723C6.44248 26.6978 5.68883 24.9152 5.30007 23H3C1.34315 23 0 21.6569 0 20C0 18.3431 1.34315 17 3 17H5.30007C5.68882 15.0849 6.44243 13.3023 7.48519 11.7279L5.85784 10.1005C4.68627 8.92894 4.68627 7.02944 5.85784 5.85787C7.02942 4.6863 8.92891 4.6863 10.1005 5.85787L11.7278 7.48521C13.3022 6.44243 15.0849 5.68881 17 5.30006V3ZM20 27C23.866 27 27 23.866 27 20C27 16.134 23.866 13 20 13C16.134 13 13 16.134 13 20C13 23.866 16.134 27 20 27Z" fill="black" fill-opacity="0.4"/>
</svg>
