<svg width="52" height="48" viewBox="0 0 52 48" fill="none" xmlns="http://www.w3.org/2000/svg">
<path fill-rule="evenodd" clip-rule="evenodd" d="M43.6382 11H19.6382C19.0859 11 18.6382 11.4477 18.6382 12V16.126C18.9578 16.0438 19.2929 16 19.6382 16H43.6382C43.9835 16 44.3186 16.0438 44.6382 16.126V12C44.6382 11.4477 44.1905 11 43.6382 11ZM18.6382 26V20C18.6382 19.4477 19.0859 19 19.6382 19H43.6382C44.1905 19 44.6382 19.4477 44.6382 20V26C44.6382 26.5523 44.1905 27 43.6382 27H19.6382C19.0859 27 18.6382 26.5523 18.6382 26ZM15.6382 12V20V26C15.6382 28.2091 17.429 30 19.6382 30H43.6382C45.8473 30 47.6382 28.2091 47.6382 26V20V12C47.6382 9.79086 45.8473 8 43.6382 8H19.6382C17.429 8 15.6382 9.79086 15.6382 12ZM26.5984 34.8477C25.962 34.3173 25.0162 34.4033 24.4858 35.0397C23.9555 35.6761 24.0415 36.622 24.6779 37.1523L30.6779 42.1523C31.2342 42.6159 32.0422 42.6159 32.5984 42.1523L38.5984 37.1523C39.2348 36.622 39.3208 35.6761 38.7905 35.0397C38.2601 34.4033 37.3143 34.3173 36.6779 34.8477L31.6382 39.0474L26.5984 34.8477Z" fill="black"/>
</svg>
