<svg width="32" height="32" viewBox="0 0 32 32" fill="none" xmlns="http://www.w3.org/2000/svg">
<path fill-rule="evenodd" clip-rule="evenodd" d="M10.6667 12.6667C10.6667 9.72115 13.0545 7.33334 16 7.33334C18.9455 7.33334 21.3333 9.72115 21.3333 12.6667C21.3333 12.9171 21.2229 13.5057 20.8739 14.4491C20.5485 15.3289 20.0985 16.3015 19.6238 17.2334C19.2215 18.0234 18.8167 18.7541 18.4842 19.3333H13.5158C13.1833 18.7541 12.7785 18.0234 12.3762 17.2334C11.9015 16.3015 11.4515 15.3289 11.1261 14.4491C10.7771 13.5057 10.6667 12.9171 10.6667 12.6667ZM24 12.6667C24 15.6278 20 22 20 22H12C12 22 8 15.6278 8 12.6667C8 8.24839 11.5817 4.66667 16 4.66667C20.4183 4.66667 24 8.24839 24 12.6667ZM12 24V24.7639C12 25.5215 12.428 26.214 13.1056 26.5528L14.1036 27.0518C14.4739 27.2369 14.8822 27.3333 15.2962 27.3333H16.7038C17.1178 27.3333 17.5261 27.2369 17.8964 27.0518L18.8944 26.5528C19.572 26.214 20 25.5215 20 24.7639V24C20 23.6318 19.7015 23.3333 19.3333 23.3333H12.6667C12.2985 23.3333 12 23.6318 12 24Z" fill="black"/>
</svg>
