<svg width="32" height="32" viewBox="0 0 32 32" fill="none" xmlns="http://www.w3.org/2000/svg">
<path fill-rule="evenodd" clip-rule="evenodd" d="M12.6667 14.6667H19.3334V12C19.3334 10.159 17.841 8.66666 16 8.66666C14.1591 8.66666 12.6667 10.159 12.6667 12V14.6667ZM10.6667 14.6667C9.93033 14.6667 9.33337 15.2636 9.33337 16V24C9.33337 24.7364 9.93033 25.3333 10.6667 25.3333H21.3334C22.0698 25.3333 22.6667 24.7364 22.6667 24V16C22.6667 15.2636 22.0698 14.6667 21.3334 14.6667L21.3334 12C21.3334 9.05447 18.9456 6.66666 16 6.66666C13.0545 6.66666 10.6667 9.05447 10.6667 12V14.6667Z" fill="black"/>
</svg>
