<svg width="32" height="32" viewBox="0 0 32 32" fill="none" xmlns="http://www.w3.org/2000/svg">
<path fill-rule="evenodd" clip-rule="evenodd" d="M25.3622 24.3333H24.8694C24.053 24.3333 23.3911 23.6749 23.3911 22.8627H8.60853C8.60853 23.6749 7.94669 24.3333 7.13027 24.3333H6.63752C5.8211 24.3333 5.15926 23.6749 5.15926 22.8627V16.2379C5.15926 15.4578 5.47075 14.7097 6.0252 14.1582L6.63752 13.549H5.63871C5.10178 13.549 4.6665 13.116 4.6665 12.5819C4.6665 12.286 4.86892 12.0281 5.15745 11.9563L6.02525 11.7405C6.33625 11.6632 6.63752 11.8972 6.63752 12.2161V13.0588H7.13027L8.01437 9.83397C8.36517 8.55438 9.53346 7.66667 10.8667 7.66667H21.133C22.4662 7.66667 23.6345 8.55438 23.9853 9.83397L24.8694 13.0588H25.3622V12.2161C25.3622 11.8972 25.6634 11.6632 25.9744 11.7405L26.8422 11.9563C27.1308 12.0281 27.3332 12.286 27.3332 12.5819C27.3332 13.116 26.8979 13.549 26.361 13.549H25.3622L25.9745 14.1582C26.5289 14.7097 26.8404 15.4578 26.8404 16.2379V22.8627C26.8404 23.6749 26.1786 24.3333 25.3622 24.3333ZM7.67981 12.8699L8.469 10.2529C8.84417 9.00883 9.99521 8.15686 11.3008 8.15686H20.7467C22.0523 8.15686 23.2034 9.00883 23.5785 10.2529L24.3677 12.8699C24.3995 12.9751 24.3414 13.0865 24.2366 13.1212C23.3821 13.4046 22.4873 13.549 21.5865 13.549H10.461C9.56029 13.549 8.66546 13.4046 7.81095 13.1212C7.70615 13.0865 7.64807 12.9751 7.67981 12.8699ZM21.5824 16.1473C22.8611 15.6195 23.552 14.9999 24.3746 14.1968C24.5907 13.9858 24.9447 14.0157 25.1208 14.2608L25.5766 14.8957C25.831 15.25 25.7906 15.7353 25.4812 16.0431C25.032 16.4899 24.4382 16.7639 23.8051 16.8164L22.4506 16.9287C22.0671 16.9605 21.6965 16.7825 21.483 16.4639C21.4078 16.3517 21.4572 16.1989 21.5824 16.1473ZM10.3331 16.1473C9.05438 15.6196 8.36348 15 7.54089 14.1969C7.32475 13.9859 6.97074 14.0158 6.79473 14.2609L6.33888 14.8958C6.08452 15.25 6.12489 15.7353 6.43434 16.0431C6.8835 16.49 7.47733 16.764 8.11036 16.8165L9.46486 16.9287C9.8484 16.9605 10.219 16.7825 10.4325 16.4639C10.5077 16.3517 10.4583 16.199 10.3331 16.1473ZM10.4349 21.0455C10.5273 20.9536 10.6526 20.902 10.7833 20.902H21.2157C21.3464 20.902 21.4717 20.9536 21.5641 21.0455L21.9847 21.4639C22.1399 21.6183 22.03 21.8824 21.8105 21.8824H10.1885C9.96902 21.8824 9.8591 21.6183 10.0143 21.4639L10.4349 21.0455Z" fill="black"/>
</svg>
