<svg width="32" height="32" viewBox="0 0 32 32" fill="none" xmlns="http://www.w3.org/2000/svg">
<path fill-rule="evenodd" clip-rule="evenodd" d="M12.0002 10.6667H20.0002C22.5775 10.6667 24.6668 12.756 24.6668 15.3333V16.6667C24.6668 19.244 22.5775 21.3333 20.0002 21.3333H12.0002C9.42284 21.3333 7.3335 19.244 7.3335 16.6667V15.3333C7.3335 12.756 9.42284 10.6667 12.0002 10.6667ZM5.3335 15.3333C5.3335 11.6514 8.31827 8.66666 12.0002 8.66666H20.0002C23.6821 8.66666 26.6668 11.6514 26.6668 15.3333V16.6667C26.6668 20.3485 23.6821 23.3333 20.0002 23.3333H12.0002C8.31827 23.3333 5.3335 20.3486 5.3335 16.6667V15.3333ZM16.6669 12.6667C14.826 12.6667 13.3336 14.1591 13.3336 16C13.3336 17.8409 14.826 19.3333 16.6669 19.3333H18.6669C20.5079 19.3333 22.0002 17.8409 22.0002 16C22.0002 14.1591 20.5079 12.6667 18.6669 12.6667H16.6669Z" fill="black"/>
</svg>
