<svg width="32" height="32" viewBox="0 0 32 32" fill="none" xmlns="http://www.w3.org/2000/svg">
<path fill-rule="evenodd" clip-rule="evenodd" d="M23.3333 16C23.3333 20.0501 20.0501 23.3333 16 23.3333C11.9499 23.3333 8.66667 20.0501 8.66667 16C8.66667 11.9499 11.9499 8.66667 16 8.66667C20.0501 8.66667 23.3333 11.9499 23.3333 16ZM26 16C26 21.5228 21.5228 26 16 26C10.4772 26 6 21.5228 6 16C6 10.4772 10.4772 6 16 6C21.5228 6 26 10.4772 26 16ZM15 10.6667C15 10.2985 15.2985 10 15.6667 10H16.3333C16.7015 10 17 10.2985 17 10.6667V18C17 18.3682 16.7015 18.6667 16.3333 18.6667H15.6667C15.2985 18.6667 15 18.3682 15 18V10.6667ZM15 20.6667C15 20.2985 15.2985 20 15.6667 20H16.3333C16.7015 20 17 20.2985 17 20.6667V21.3333C17 21.7015 16.7015 22 16.3333 22H15.6667C15.2985 22 15 21.7015 15 21.3333V20.6667Z" fill="black"/>
</svg>
