<svg width="32" height="32" viewBox="0 0 32 32" fill="none" xmlns="http://www.w3.org/2000/svg">
<path fill-rule="evenodd" clip-rule="evenodd" d="M20.7939 8.60396C21.5292 8.56324 22.0922 7.93418 22.0515 7.19892C22.0108 6.46367 21.3817 5.90065 20.6464 5.94138C19.3833 6.01135 18.1368 6.53 17.1716 7.49528C15.7757 8.89117 15.3153 10.8683 15.7905 12.6476L7.2721 21.166C6.7514 21.6867 6.7514 22.5309 7.2721 23.0516L9.15771 24.9372C9.67841 25.4579 10.5226 25.4579 11.0433 24.9372L19.5617 16.4188C21.341 16.894 23.3182 16.4336 24.714 15.0377C25.6793 14.0725 26.198 12.826 26.2679 11.5629C26.3087 10.8276 25.7456 10.1986 25.0104 10.1578C24.2751 10.1171 23.6461 10.6801 23.6053 11.4154C23.5703 12.0487 23.312 12.6686 22.8284 13.1521C21.787 14.1935 20.0986 14.1935 19.0572 13.1521C18.0158 12.1107 18.0158 10.4223 19.0572 9.38089C19.5407 8.89735 20.1606 8.63905 20.7939 8.60396Z" fill="black"/>
</svg>
