<svg width="32" height="32" viewBox="0 0 32 32" fill="none" xmlns="http://www.w3.org/2000/svg">
<path fill-rule="evenodd" clip-rule="evenodd" d="M26 16C26 21.5228 21.5228 26 16 26C10.4772 26 6 21.5228 6 16C6 10.4772 10.4772 6 16 6C21.5228 6 26 10.4772 26 16ZM7.93145 17.3644C12.3444 17.4248 14.3876 21.0123 14.6149 24.0651C11.1992 23.4826 8.50532 20.783 7.93145 17.3644ZM7.86813 15.0909H9.86365C10.6464 15.0909 11.3027 14.8382 12.0503 14.5503C13.0393 14.1695 14.188 13.7273 16 13.7273C17.8121 13.7273 18.9607 14.1695 19.9497 14.5503C20.6973 14.8382 21.3536 15.0909 22.1364 15.0909H24.1319C23.6797 11 20.2114 7.81818 16 7.81818C11.7886 7.81818 8.32035 11 7.86813 15.0909ZM17.3851 24.0651C17.6124 21.0123 19.6556 17.4248 24.0686 17.3644C23.4947 20.783 20.8008 23.4826 17.3851 24.0651Z" fill="black"/>
</svg>
