<svg width="32" height="32" viewBox="0 0 32 32" fill="none" xmlns="http://www.w3.org/2000/svg">
<path fill-rule="evenodd" clip-rule="evenodd" d="M0.896597 4.98993C6.23296 2.65414 11.4458 1.91162 16 1.9466H16.0006C20.555 1.91162 25.7687 2.65414 31.104 4.98993C31.7398 3.83275 32 3.13091 32 3.13091C26.1673 0.813237 20.7047 0.0198965 16.0006 0C11.2964 0.0198965 5.83344 0.81311 7.62939e-06 3.13091C7.62939e-06 3.13091 0.183365 3.70069 0.896597 4.98993ZM11.5212 6.71462L15.998 32L20.5108 6.71095C24.7493 6.71399 26.0936 7.18391 26.2891 9.10212C26.2891 9.10212 29.1527 8.03022 30.5952 5.85323C24.9621 3.2314 19.3011 3.11304 19.3011 3.11304L16.0015 7.14932L12.7022 3.11367C12.7022 3.11367 7.04143 3.23191 1.40751 5.85374C2.85126 8.03073 5.71377 9.10263 5.71377 9.10263C5.90811 7.18454 7.25406 6.71462 11.5212 6.71462Z" fill="black"/>
</svg>
