<svg width="48" height="48" viewBox="0 0 48 48" fill="none" xmlns="http://www.w3.org/2000/svg">
<mask id="path-1-inside-1" fill="white">
<path fill-rule="evenodd" clip-rule="evenodd" d="M7 30.7777H2C0.895431 30.7777 0 29.8823 0 28.7777V21.2237C0 20.1191 0.895431 19.2237 2 19.2237H7.00008L14.6827 12.499C15.9758 11.3671 18 12.2854 18 14.0039V35.9976C18 37.716 15.9758 38.6343 14.6827 37.5025L7 30.7778V30.7777Z"/>
</mask>
<path d="M7 30.7777H9V28.7777H7V30.7777ZM7.00008 19.2237V21.2237H7.75175L8.31735 20.7286L7.00008 19.2237ZM14.6827 12.499L16 14.0039L14.6827 12.499ZM14.6827 37.5025L13.3655 39.0074L14.6827 37.5025ZM7 30.7778H5V31.6851L5.68273 32.2827L7 30.7778ZM7 28.7777H2V32.7777H7V28.7777ZM2 28.7777H2H-2C-2 30.9868 -0.209138 32.7777 2 32.7777V28.7777ZM2 28.7777V21.2237H-2V28.7777H2ZM2 21.2237V21.2237V17.2237C-0.209142 17.2237 -2 19.0145 -2 21.2237H2ZM2 21.2237H7.00008V17.2237H2V21.2237ZM8.31735 20.7286L16 14.0039L13.3655 10.9941L5.68281 17.7187L8.31735 20.7286ZM16 14.0039L16 14.0039H20C20 10.567 15.9516 8.73037 13.3655 10.9941L16 14.0039ZM16 14.0039V35.9976H20V14.0039H16ZM16 35.9976V35.9976L13.3655 39.0074C15.9516 41.2711 20 39.4345 20 35.9976H16ZM16 35.9976L8.31727 29.2728L5.68273 32.2827L13.3655 39.0074L16 35.9976ZM9 30.7778V30.7777H5V30.7778H9Z" fill="black" fill-opacity="0.4" mask="url(#path-1-inside-1)"/>
</svg>
